<svg width="100" height="21" viewBox="0 0 100 21" fill="none" xmlns="http://www.w3.org/2000/svg">
<path fill-rule="evenodd" clip-rule="evenodd" d="M7 0.474579H19C20.1 0.474579 21 1.37458 21 2.47458V14.4746C21 15.5746 20.1 16.4746 19 16.4746H7C5.9 16.4746 5 15.5746 5 14.4746V2.47458C5 1.37458 5.9 0.474579 7 0.474579ZM19 14.4746V2.47458H7V14.4746H19ZM10.5 10.1446L12.19 12.4046L14.67 9.30458L18 13.4746H8L10.5 10.1446ZM1 18.4746V4.47458H3V18.4746H17V20.4746H3C1.9 20.4746 1 19.5746 1 18.4746Z" fill="black" fill-opacity="0.54"/>
<path d="M41.5 19.4746C41.5 19.7507 41.7239 19.9746 42 19.9746H68C68.2761 19.9746 68.5 19.7507 68.5 19.4746V1.47458C68.5 1.19844 68.2761 0.974579 68 0.974579H42C41.7239 0.974579 41.5 1.19844 41.5 1.47458V19.4746Z" stroke="#555555" stroke-linejoin="round"/>
<path fill-rule="evenodd" clip-rule="evenodd" d="M63.9431 2.47458H62.784V17.4746H63.9431V2.47458ZM58.1477 4.47458C58.1477 5.30458 58.9243 5.97458 59.8863 5.97458C60.8483 5.97458 61.6249 5.30458 61.6249 4.47458C61.6249 3.64458 60.8483 2.97458 59.8863 2.97458C58.9243 2.97458 58.1477 3.64458 58.1477 4.47458ZM58.7272 8.47458C58.7272 9.02458 59.2488 9.47458 59.8863 9.47458C60.5238 9.47458 61.0454 9.02458 61.0454 8.47458C61.0454 7.92458 60.5238 7.47458 59.8863 7.47458C59.2488 7.47458 58.7272 7.92458 58.7272 8.47458ZM55.2499 9.47458C54.6124 9.47458 54.0908 9.02458 54.0908 8.47458C54.0908 7.92458 54.6124 7.47458 55.2499 7.47458C55.8874 7.47458 56.409 7.92458 56.409 8.47458C56.409 9.02458 55.8874 9.47458 55.2499 9.47458ZM50.6136 5.97458C49.6515 5.97458 48.8749 5.30458 48.8749 4.47458C48.8749 3.64458 49.6515 2.97458 50.6136 2.97458C51.5756 2.97458 52.3522 3.64458 52.3522 4.47458C52.3522 5.30458 51.5756 5.97458 50.6136 5.97458ZM46.5568 17.4746V2.47458H47.7158V17.4746H46.5568ZM55.2499 5.97458C54.2879 5.97458 53.5113 5.30458 53.5113 4.47458C53.5113 3.64458 54.2879 2.97458 55.2499 2.97458C56.212 2.97458 56.9886 3.64458 56.9886 4.47458C56.9886 5.30458 56.212 5.97458 55.2499 5.97458ZM49.4545 8.47458C49.4545 9.02458 49.9761 9.47458 50.6136 9.47458C51.2511 9.47458 51.7727 9.02458 51.7727 8.47458C51.7727 7.92458 51.2511 7.47458 50.6136 7.47458C49.9761 7.47458 49.4545 7.92458 49.4545 8.47458ZM50.6136 16.9746C50.289 16.9746 50.034 16.7546 50.034 16.4746C50.034 16.1946 50.289 15.9746 50.6136 15.9746C50.9381 15.9746 51.1931 16.1946 51.1931 16.4746C51.1931 16.7546 50.9381 16.9746 50.6136 16.9746ZM59.8863 16.9746C59.5618 16.9746 59.3068 16.7546 59.3068 16.4746C59.3068 16.1946 59.5618 15.9746 59.8863 15.9746C60.2108 15.9746 60.4658 16.1946 60.4658 16.4746C60.4658 16.7546 60.2108 16.9746 59.8863 16.9746ZM54.6704 16.4746C54.6704 16.7546 54.9254 16.9746 55.2499 16.9746C55.5745 16.9746 55.8295 16.7546 55.8295 16.4746C55.8295 16.1946 55.5745 15.9746 55.2499 15.9746C54.9254 15.9746 54.6704 16.1946 54.6704 16.4746ZM59.8863 13.4746C59.2488 13.4746 58.7272 13.0246 58.7272 12.4746C58.7272 11.9246 59.2488 11.4746 59.8863 11.4746C60.5238 11.4746 61.0454 11.9246 61.0454 12.4746C61.0454 13.0246 60.5238 13.4746 59.8863 13.4746ZM54.0908 12.4746C54.0908 13.0246 54.6124 13.4746 55.2499 13.4746C55.8874 13.4746 56.409 13.0246 56.409 12.4746C56.409 11.9246 55.8874 11.4746 55.2499 11.4746C54.6124 11.4746 54.0908 11.9246 54.0908 12.4746ZM50.6136 13.4746C49.9761 13.4746 49.4545 13.0246 49.4545 12.4746C49.4545 11.9246 49.9761 11.4746 50.6136 11.4746C51.2511 11.4746 51.7727 11.9246 51.7727 12.4746C51.7727 13.0246 51.2511 13.4746 50.6136 13.4746Z" fill="#555555"/>
<path d="M66 2.47458H65V17.4746H66V2.47458Z" fill="#555555"/>
<path d="M45 2.47458H44V17.4746H45V2.47458Z" fill="#555555"/>
<path d="M89 0.474579V11.4746H92V20.4746L99 8.47458H95L98 0.474579H89Z" fill="black" fill-opacity="0.54"/>
</svg>
